<svg width="24" height="24" viewBox="0 0 24 24" fill="none" xmlns="http://www.w3.org/2000/svg">
<path d="M8 13.5H16C17.1935 13.5 18.3377 13.9744 19.1816 14.8184C20.0256 15.6623 20.5 16.8065 20.5 18C20.5 18.663 20.2364 19.2987 19.7676 19.7676C19.2987 20.2364 18.663 20.5 18 20.5H6C5.33696 20.5 4.70126 20.2364 4.23242 19.7676C3.76358 19.2987 3.5 18.663 3.5 18C3.5 16.8065 3.97445 15.6623 4.81836 14.8184C5.66227 13.9744 6.80653 13.5 8 13.5ZM12 3.5C12.9283 3.5 13.8182 3.86901 14.4746 4.52539C15.131 5.18177 15.5 6.07174 15.5 7C15.5 7.92826 15.131 8.81823 14.4746 9.47461C13.8182 10.131 12.9283 10.5 12 10.5C11.0717 10.5 10.1818 10.131 9.52539 9.47461C8.86901 8.81823 8.5 7.92826 8.5 7C8.5 6.07174 8.86901 5.18177 9.52539 4.52539C10.1818 3.86901 11.0717 3.5 12 3.5Z" stroke="white"/>
</svg>
