<svg width="18" height="18" viewBox="0 0 18 18" fill="none" xmlns="http://www.w3.org/2000/svg">
<path d="M9.23586 0.0341539C9.38124 0.0761263 9.51264 0.156447 9.61627 0.266689C9.71991 0.376931 9.79196 0.513031 9.82488 0.66071L11.1909 6.80893L17.3385 8.17596C17.4862 8.2087 17.6223 8.2805 17.7328 8.38387C17.8432 8.48724 17.9238 8.61838 17.9662 8.76357C18.0086 8.90875 18.0112 9.06266 17.9737 9.2092C17.9362 9.35573 17.8601 9.48951 17.7532 9.59654L9.59702 17.752C9.49669 17.8527 9.37253 17.9264 9.23609 17.9662C9.09965 18.006 8.95535 18.0107 8.8166 17.9799L2.14378 16.4955C1.98685 16.4608 1.8431 16.382 1.72945 16.2684C1.61581 16.1548 1.53702 16.011 1.50236 15.8541L0.0201453 9.18187C-0.0107416 9.04314 -0.00604821 8.89885 0.0337892 8.76242C0.0736266 8.62599 0.147315 8.50184 0.248003 8.40152L8.4019 0.247183C8.50895 0.140042 8.64289 0.0637173 8.78965 0.0262309C8.9364 -0.0112554 9.09054 -0.00851851 9.23586 0.0341539ZM9.55828 7.24752L8.51014 2.53013L1.76896 9.26845L2.8171 13.987L9.55828 7.24752ZM4.01222 15.1809L8.73116 16.2289L15.4701 9.49059L10.7523 8.44254L4.01222 15.1809Z" fill="white"/>
</svg>
