<svg width="28" height="28" viewBox="0 0 28 28" fill="none" xmlns="http://www.w3.org/2000/svg">
<path d="M18.25 16.5C18.0511 16.5 17.8604 16.579 17.7197 16.7197C17.579 16.8603 17.5 17.0511 17.5 17.25C17.5 17.4489 17.579 17.6397 17.7197 17.7803C17.8604 17.921 18.0511 18 18.25 18H21.75C21.9489 18 22.1397 17.921 22.2804 17.7803C22.421 17.6397 22.5 17.4489 22.5 17.25C22.5 17.0511 22.421 16.8603 22.2804 16.7197C22.1397 16.579 21.9489 16.5 21.75 16.5H18.25ZM2.00403 8.75C2.00403 7.75544 2.39912 6.80161 3.10238 6.09835C3.80564 5.39509 4.75947 5 5.75403 5H22.25C23.2446 5 24.1984 5.39509 24.9017 6.09835C25.6049 6.80161 26 7.75544 26 8.75V19.25C26 20.2446 25.6049 21.1984 24.9017 21.9017C24.1984 22.6049 23.2446 23 22.25 23H5.75503C4.76047 23 3.80664 22.6049 3.10338 21.9017C2.40012 21.1984 2.00503 20.2446 2.00503 19.25L2.00403 8.75ZM5.75403 6.5C5.15729 6.5 4.58499 6.73705 4.16304 7.15901C3.74108 7.58097 3.50403 8.15326 3.50403 8.75V9.5H24.5V8.75C24.5 8.15326 24.263 7.58097 23.841 7.15901C23.4191 6.73705 22.8468 6.5 22.25 6.5H5.75403ZM3.50403 19.25C3.50403 19.8467 3.74108 20.419 4.16304 20.841C4.58499 21.2629 5.15729 21.5 5.75403 21.5H22.25C22.8468 21.5 23.4191 21.2629 23.841 20.841C24.263 20.419 24.5 19.8467 24.5 19.25V11H3.50503L3.50403 19.25Z" fill="white"/>
</svg>
