<svg width="20" height="20" viewBox="0 0 20 20" fill="none" xmlns="http://www.w3.org/2000/svg">
<path d="M9.28027 0.5H10.7178C10.8291 0.500003 10.9376 0.53704 11.0254 0.605469C11.1133 0.674044 11.176 0.770782 11.2031 0.878906L11.7227 2.95117L11.792 3.22461L12.0605 3.30762C12.4841 3.43841 12.8884 3.60658 13.2734 3.81152L13.5225 3.94434L13.7656 3.79883L15.5986 2.69922C15.6941 2.64202 15.8056 2.61737 15.916 2.63086C16.0264 2.64442 16.1292 2.69499 16.208 2.77344L17.2266 3.79199V3.79102C17.3053 3.86986 17.3556 3.97339 17.3691 4.08398C17.3826 4.19442 17.358 4.30594 17.3008 4.40137L16.2012 6.23438L16.0557 6.47754L16.1885 6.72656C16.3934 7.1116 16.5616 7.51595 16.6924 7.93945L16.7754 8.20898L17.0488 8.27734L19.1211 8.7959C19.2292 8.82298 19.326 8.88576 19.3945 8.97363C19.463 9.06145 19.5 9.16992 19.5 9.28125V10.7188C19.5 10.8301 19.463 10.9386 19.3945 11.0264C19.326 11.1142 19.2292 11.177 19.1211 11.2041L17.0488 11.7227L16.7754 11.791L16.6924 12.0605C16.5616 12.4841 16.3934 12.8884 16.1885 13.2734L16.0557 13.5225L16.2012 13.7656L17.3008 15.5986C17.358 15.6941 17.3826 15.8056 17.3691 15.916C17.3556 16.0264 17.305 16.1292 17.2266 16.208L16.208 17.2266C16.1292 17.305 16.0264 17.3556 15.916 17.3691C15.8055 17.3826 15.6931 17.358 15.5977 17.3008L13.7656 16.2012L13.5225 16.0557L13.2734 16.1885C12.8884 16.3934 12.4841 16.5616 12.0605 16.6924L11.791 16.7754L11.7227 17.0488L11.2041 19.1211C11.177 19.2292 11.1142 19.326 11.0264 19.3945C10.9386 19.463 10.8301 19.5 10.7188 19.5H9.28125C9.16992 19.5 9.06145 19.463 8.97363 19.3945C8.88576 19.326 8.82298 19.2292 8.7959 19.1211L8.27734 17.0488L8.20898 16.7754L7.93945 16.6924L7.62793 16.5879C7.31859 16.4761 7.01737 16.3427 6.72656 16.1885L6.47656 16.0557L6.23438 16.2012L4.40137 17.3008C4.30594 17.358 4.19442 17.3826 4.08398 17.3691C3.97362 17.3556 3.87078 17.305 3.79199 17.2266L2.77344 16.208H2.77246C2.69429 16.1293 2.64439 16.0262 2.63086 15.916C2.61737 15.8055 2.64099 15.6931 2.69824 15.5977L3.79883 13.7656L3.94434 13.5234L3.81152 13.2734C3.60595 12.8858 3.43717 12.4797 3.30762 12.0605L3.22461 11.791L2.95117 11.7227L0.878906 11.2041C0.770868 11.177 0.675014 11.1141 0.606445 11.0264C0.537944 10.9387 0.500167 10.831 0.5 10.7197V9.28223L0.506836 9.19922C0.520513 9.11777 0.554178 9.04044 0.605469 8.97461C0.674044 8.88674 0.770782 8.82396 0.878906 8.79688L2.95117 8.27832L3.22461 8.20996L3.30762 7.94043C3.43841 7.51693 3.60659 7.11257 3.81152 6.72754L3.94434 6.47852L3.79883 6.23535L2.69922 4.40234C2.64203 4.30691 2.61737 4.1954 2.63086 4.08496C2.64445 3.97436 2.6947 3.87084 2.77344 3.79199L3.79102 2.77246C3.8698 2.69401 3.97362 2.64442 4.08398 2.63086C4.19425 2.61739 4.30603 2.64123 4.40137 2.69824L6.23438 3.79883L6.47754 3.94434L6.72656 3.81152C7.1116 3.60658 7.51595 3.43841 7.93945 3.30762L8.20898 3.22461L8.27734 2.95117L8.7959 0.878906C8.82296 0.770868 8.88586 0.675014 8.97363 0.606445C9.03956 0.554951 9.11659 0.520543 9.19824 0.506836L9.28027 0.5ZM10 5.5C8.80653 5.5 7.66227 5.97445 6.81836 6.81836C5.97445 7.66227 5.5 8.80653 5.5 10C5.5 11.1935 5.97445 12.3377 6.81836 13.1816C7.66227 14.0256 8.80653 14.5 10 14.5C11.1935 14.5 12.3377 14.0256 13.1816 13.1816C14.0256 12.3377 14.5 11.1935 14.5 10C14.5 8.80653 14.0256 7.66227 13.1816 6.81836C12.3377 5.97445 11.1935 5.5 10 5.5Z" stroke="white"/>
</svg>
