<svg width="20" height="15" viewBox="0 0 20 15" fill="none" xmlns="http://www.w3.org/2000/svg">
<path d="M6.17683 7.22222C7.19096 7.22222 8.16354 6.84177 8.88064 6.16455C9.59773 5.48734 10.0006 4.56884 10.0006 3.61111C10.0006 2.65338 9.59773 1.73488 8.88064 1.05767C8.16354 0.380455 7.19096 0 6.17683 0C5.16271 0 4.19012 0.380455 3.47303 1.05767C2.75594 1.73488 2.35308 2.65338 2.35308 3.61111C2.35308 4.56884 2.75594 5.48734 3.47303 6.16455C4.19012 6.84177 5.16271 7.22222 6.17683 7.22222ZM12.8678 12.9389C13.4914 13.18 14.2844 13.3333 15.2938 13.3333C20 13.3333 20 10 20 10C20 9.55816 19.8142 9.13441 19.4835 8.82188C19.1528 8.50935 18.7042 8.33363 18.2364 8.33333H12.7913C13.2537 8.86222 13.5314 9.53889 13.5314 10.2778V10.6733C13.5289 10.7669 13.5222 10.8603 13.5114 10.9533C13.4313 11.6474 13.2122 12.321 12.8678 12.9389ZM18.2364 4.44444C18.2364 5.18116 17.9265 5.8877 17.3749 6.40863C16.8233 6.92956 16.0751 7.22222 15.295 7.22222C14.5149 7.22222 13.7668 6.92956 13.2152 6.40863C12.6636 5.8877 12.3537 5.18116 12.3537 4.44444C12.3537 3.70773 12.6636 3.00119 13.2152 2.48026C13.7668 1.95932 14.5149 1.66667 15.295 1.66667C16.0751 1.66667 16.8233 1.95932 17.3749 2.48026C17.9265 3.00119 18.2364 3.70773 18.2364 4.44444ZM0 10.5556C0 9.96619 0.247913 9.40096 0.689201 8.98421C1.13049 8.56746 1.729 8.33333 2.35308 8.33333H10.0006C10.6247 8.33333 11.2232 8.56746 11.6645 8.98421C12.1058 9.40096 12.3537 9.96619 12.3537 10.5556C12.3537 10.5556 12.3537 15 6.17683 15C0 15 0 10.5556 0 10.5556Z" fill="white"/>
</svg>
