<svg width="14" height="17" viewBox="0 0 14 17" fill="none" xmlns="http://www.w3.org/2000/svg">
<path d="M6.96565 0C5.51884 0 4.13129 0.574744 3.10824 1.59779C2.08519 2.62085 1.51044 4.0084 1.51044 5.45521V8.20464C1.51055 8.32553 1.48254 8.44479 1.42861 8.55299L0.0905275 11.2284C0.0251635 11.3591 -0.0057008 11.5043 0.000866045 11.6503C0.00743289 11.7963 0.0512128 11.9382 0.128048 12.0625C0.204883 12.1868 0.312221 12.2894 0.439869 12.3606C0.567517 12.4317 0.711236 12.4691 0.857375 12.4691H13.0739C13.2201 12.4691 13.3638 12.4317 13.4914 12.3606C13.6191 12.2894 13.7264 12.1868 13.8033 12.0625C13.8801 11.9382 13.9239 11.7963 13.9304 11.6503C13.937 11.5043 13.9061 11.3591 13.8408 11.2284L12.5035 8.55299C12.4493 8.44486 12.421 8.32559 12.4209 8.20464V5.45521C12.4209 4.0084 11.8461 2.62085 10.8231 1.59779C9.80002 0.574744 8.41247 0 6.96565 0ZM6.96565 14.807C6.48197 14.8073 6.01011 14.6575 5.61511 14.3783C5.22011 14.0992 4.92142 13.7044 4.76019 13.2484H9.17112C9.00989 13.7044 8.71119 14.0992 8.31619 14.3783C7.9212 14.6575 7.44934 14.8073 6.96565 14.807Z" fill="white" fill-opacity="0.77"/>
</svg>
