<svg width="24" height="22" viewBox="0 0 24 22" fill="none" xmlns="http://www.w3.org/2000/svg">
<path d="M3.49849 12.8237C4.31472 9.09561 7.72681 6.44669 11.565 6.44669C15.4019 6.44669 18.814 9.09561 19.6314 12.8237C19.6638 12.9716 19.7567 13.1013 19.8895 13.1841C20.0224 13.2669 20.1844 13.2962 20.34 13.2654C20.4955 13.2346 20.6318 13.1463 20.7189 13.0199C20.806 12.8935 20.8367 12.7394 20.8043 12.5915C19.8744 8.35114 15.9848 5.30835 11.565 5.30835C7.14516 5.30835 3.25554 8.35114 2.32562 12.5915C2.29325 12.7394 2.32398 12.8935 2.41107 13.0199C2.49815 13.1463 2.63445 13.2346 2.78998 13.2654C2.94552 13.2962 3.10754 13.2669 3.24041 13.1841C3.37328 13.1013 3.46612 12.9716 3.49849 12.8237ZM11.553 8.72338C12.6639 8.72338 13.7294 9.14314 14.5149 9.89032C15.3005 10.6375 15.7418 11.6509 15.7418 12.7076C15.7418 13.7642 15.3005 14.7776 14.5149 15.5248C13.7294 16.272 12.6639 16.6918 11.553 16.6918C10.4421 16.6918 9.37661 16.272 8.59106 15.5248C7.8055 14.7776 7.36418 13.7642 7.36418 12.7076C7.36418 11.6509 7.8055 10.6375 8.59106 9.89032C9.37661 9.14314 10.4421 8.72338 11.553 8.72338Z" fill="white"/>
</svg>
